<svg xmlns="http://www.w3.org/2000/svg" width="512" height="512" viewBox="0 0 512 512">
  <g id="tabbar" transform="translate(-160 -164)">
    <rect id="Rectangle_1" data-name="Rectangle 1" width="512" height="512" rx="256" transform="translate(160 164)" fill="#fff"/>
    <g id="Group_26" data-name="Group 26" transform="translate(-766.436 -186.772)">
      <g id="Group_12" data-name="Group 12" transform="translate(960.967 382.892)">
        <ellipse id="Ellipse_1" data-name="Ellipse 1" cx="108.358" cy="112.007" rx="108.358" ry="112.007" transform="translate(128.57 100.445)" fill="#ffaf0f"/>
        <g id="Group_8" data-name="Group 8" transform="translate(0 210.029)">
          <path id="Path_12" data-name="Path 12" d="M730.723,444.184H754.5c4.706,0,7.743,3.034,7.809,7.656.036,4.389-2.978,7.772-7.457,7.8q-23.927.164-47.86,0c-4.652,0-7.666-3.492-7.488-8.046s3.2-7.4,7.744-7.416Q718.977,444.164,730.723,444.184Z" transform="translate(-318.841 -444.172)" fill="#161616"/>
          <path id="Path_18" data-name="Path 18" d="M730.723,444.184H754.5c4.706,0,7.743,3.034,7.809,7.656.036,4.389-2.978,7.772-7.457,7.8q-23.927.164-47.86,0c-4.652,0-7.666-3.492-7.488-8.046s3.2-7.4,7.744-7.416Q718.977,444.164,730.723,444.184Z" transform="translate(-699.497 -439.68)" fill="#161616"/>
        </g>
        <g id="Group_9" data-name="Group 9" transform="matrix(0.719, -0.695, 0.695, 0.719, 55.271, 368.556)">
          <path id="Path_12-2" data-name="Path 12" d="M31.225.012H55c4.706,0,7.743,3.034,7.809,7.656.036,4.389-2.978,7.772-7.458,7.8q-23.927.164-47.86,0c-4.652,0-7.666-3.492-7.487-8.046S3.206.019,7.751.005Q19.479-.008,31.225.012Z" transform="translate(380.656 0)" fill="#161616"/>
          <path id="Path_18-2" data-name="Path 18" d="M31.225.012H55c4.706,0,7.743,3.034,7.809,7.656.036,4.389-2.978,7.772-7.458,7.8q-23.927.164-47.86,0c-4.652,0-7.666-3.492-7.487-8.046S3.206.019,7.751.005Q19.479-.008,31.225.012Z" transform="translate(0 4.492)" fill="#161616"/>
        </g>
        <g id="Group_10" data-name="Group 10" transform="translate(72.03 57.859) rotate(45)">
          <path id="Path_12-3" data-name="Path 12" d="M31.225.012H55c4.706,0,7.743,3.034,7.809,7.656.036,4.389-2.978,7.772-7.458,7.8q-23.927.164-47.86,0c-4.652,0-7.666-3.492-7.487-8.046S3.206.019,7.751.005Q19.479-.008,31.225.012Z" transform="translate(380.656 0)" fill="#161616"/>
          <path id="Path_18-3" data-name="Path 18" d="M31.225.012H55c4.706,0,7.743,3.034,7.809,7.656.036,4.389-2.978,7.772-7.458,7.8q-23.927.164-47.86,0c-4.652,0-7.666-3.492-7.487-8.046S3.206.019,7.751.005Q19.479-.008,31.225.012Z" transform="translate(0 4.492)" fill="#161616"/>
        </g>
        <g id="Group_11" data-name="Group 11" transform="translate(227.263 0) rotate(90)">
          <path id="Path_18-4" data-name="Path 18" d="M31.225.012H55c4.706,0,7.743,3.034,7.809,7.656.036,4.389-2.978,7.772-7.458,7.8q-23.927.164-47.86,0c-4.652,0-7.666-3.492-7.487-8.046S3.206.019,7.751.005Q19.479-.008,31.225.012Z" transform="translate(0 0)" fill="#161616"/>
        </g>
        <path id="Path_17" data-name="Path 17" d="M585.023,414.023c-7.615.256-15.238.217-22.86.21q-46.114-.047-92.237-.132a34.887,34.887,0,0,0-5.017.256,8.756,8.756,0,0,0-7.1,7.157c-.961,6.351,3.164,10.639,10.453,10.647q46.7.046,93.4,0c8.809,0,8.809,0,6.979,8.824-9.305,45.13-47.774,80.272-93.826,84.009-43.5,3.528-78.015-13.376-101.138-50.55-19.254-30.955-21.394-64.36-6.715-97.618,15.6-35.391,43.129-57,81.737-62.639,40-5.839,72.89,7.909,98.889,38.647,4.521,5.35,7.63,11.585,11.267,17.5a8.98,8.98,0,0,0,16.09-7.878,33.676,33.676,0,0,0-2.327-4.862c-8.529-14.508-19.168-27.14-32.637-37.313-26.031-19.611-55.45-28.256-87.785-25.015-28.218,2.83-53.1,14.105-73.665,33.94-22.8,21.976-35.98,48.852-38.213,80.442-2.535,35.8,8.2,67.485,32.8,93.85A64.126,64.126,0,0,1,389.3,534.067a114.64,114.64,0,0,1,2.016,37.306c-.519,4.947,1.148,7.754,5.172,9.778a15.863,15.863,0,0,0,7.506,1.411H513.281c4.521,0,9.056.147,13.562-.1,6.715-.372,10.74-4.916,9.956-11.119a106.081,106.081,0,0,1,.225-29.319c1.861-12.229,5.312-23.883,13.958-33.266a172.647,172.647,0,0,0,13.4-15.509c16.439-22.487,24.387-47.649,24.55-75.425C588.993,414.76,588.078,413.922,585.023,414.023ZM518.336,557.942c-.163,6.552-.248,6.552-7.025,6.552H414.43c-5.118,0-5.025,0-5.094-5.025a132.517,132.517,0,0,0-2.66-26.5c-.209-.962-.287-1.946-.5-3.435,38.438,18.9,76.635,19.06,115.359.558A157.618,157.618,0,0,0,518.336,557.942Z" transform="translate(-242.369 -202.793)" fill="#161616"/>
      </g>
      <g id="Group_22" data-name="Group 22" transform="translate(1119.011 778.807)">
        <path id="Path_19" data-name="Path 19" d="M5854.135,4994.179H5729.866v24.386h124.269v23.75h-68.874" transform="translate(-5728.54 -4994.179)" fill="none" stroke="#161616" stroke-linecap="round" stroke-linejoin="round" stroke-width="14"/>
        <line id="Line_4" data-name="Line 4" x2="12.352" transform="translate(23.019 47.903)" fill="none" stroke="#161616" stroke-linecap="round" stroke-width="14"/>
        <line id="Line_5" data-name="Line 5" x1="1.123" transform="translate(0 47.903)" fill="none" stroke="#161616" stroke-linecap="round" stroke-width="14"/>
      </g>
    </g>
  </g>
</svg>
